<mxfile host="app.diagrams.net" modified="2022-10-18T03:57:36.305Z" agent="5.0 (Windows NT 10.0; Win64; x64) AppleWebKit/537.36 (KHTML, like Gecko) Chrome/106.0.0.0 Safari/537.36 Edg/106.0.1370.47" etag="hUjJDLsf3HAuX8oSAuoo" version="20.4.1" type="github">
  <diagram id="xbdcwXHPQUHZUbyYT70E" name="第 1 页">
    <mxGraphModel dx="735" dy="1637" grid="1" gridSize="10" guides="1" tooltips="1" connect="1" arrows="1" fold="1" page="1" pageScale="1" pageWidth="827" pageHeight="1169" math="0" shadow="0">
      <root>
        <mxCell id="0" />
        <mxCell id="1" parent="0" />
        <mxCell id="qUBD2IH8IKCdjNRNr7ge-23" value="" style="rounded=0;whiteSpace=wrap;html=1;fontSize=18;fillColor=#A9C4EB;dashed=1;strokeColor=none;" parent="1" vertex="1">
          <mxGeometry x="220" y="-10" width="500" height="180" as="geometry" />
        </mxCell>
        <mxCell id="_aCOL6AofIa1MBWSSgmZ-10" value="" style="rounded=1;whiteSpace=wrap;html=1;fontSize=18;fillColor=#F19C99;" parent="1" vertex="1">
          <mxGeometry x="840" y="280" width="120" height="40" as="geometry" />
        </mxCell>
        <mxCell id="_aCOL6AofIa1MBWSSgmZ-1" value="" style="rounded=1;whiteSpace=wrap;html=1;fillColor=#F19C99;" parent="1" vertex="1">
          <mxGeometry x="120" y="280" width="120" height="40" as="geometry" />
        </mxCell>
        <mxCell id="_aCOL6AofIa1MBWSSgmZ-2" value="&lt;font style=&quot;font-size: 18px;&quot;&gt;开始&lt;/font&gt;" style="text;html=1;strokeColor=none;fillColor=none;align=center;verticalAlign=middle;whiteSpace=wrap;rounded=0;" parent="1" vertex="1">
          <mxGeometry x="130" y="285" width="60" height="30" as="geometry" />
        </mxCell>
        <mxCell id="_aCOL6AofIa1MBWSSgmZ-3" value="迁移版本信息" style="rounded=0;whiteSpace=wrap;html=1;fontSize=18;fillColor=#CCCCCC;" parent="1" vertex="1">
          <mxGeometry x="200" y="280" width="120" height="40" as="geometry" />
        </mxCell>
        <mxCell id="_aCOL6AofIa1MBWSSgmZ-4" value="迁移安装配置" style="rounded=0;whiteSpace=wrap;html=1;fontSize=18;fillColor=#CCCCCC;" parent="1" vertex="1">
          <mxGeometry x="320" y="280" width="120" height="40" as="geometry" />
        </mxCell>
        <mxCell id="_aCOL6AofIa1MBWSSgmZ-6" value="" style="endArrow=classic;html=1;rounded=0;fontSize=18;" parent="1" edge="1">
          <mxGeometry width="50" height="50" relative="1" as="geometry">
            <mxPoint x="120" y="320" as="sourcePoint" />
            <mxPoint x="1000" y="320" as="targetPoint" />
          </mxGeometry>
        </mxCell>
        <mxCell id="_aCOL6AofIa1MBWSSgmZ-7" value="Pre-copy" style="rounded=0;whiteSpace=wrap;html=1;fontSize=18;fillColor=#E6FFCC;" parent="1" vertex="1">
          <mxGeometry x="440" y="280" width="160" height="40" as="geometry" />
        </mxCell>
        <mxCell id="_aCOL6AofIa1MBWSSgmZ-8" value="停机" style="rounded=0;whiteSpace=wrap;html=1;fontSize=18;fillColor=#9AC7BF;" parent="1" vertex="1">
          <mxGeometry x="600" y="280" width="120" height="40" as="geometry" />
        </mxCell>
        <mxCell id="_aCOL6AofIa1MBWSSgmZ-9" value="Post-copy" style="rounded=0;whiteSpace=wrap;html=1;fontSize=18;fillColor=#E6FFCC;" parent="1" vertex="1">
          <mxGeometry x="720" y="280" width="160" height="40" as="geometry" />
        </mxCell>
        <mxCell id="_aCOL6AofIa1MBWSSgmZ-11" value="&lt;font style=&quot;font-size: 18px;&quot;&gt;结束&lt;/font&gt;" style="text;html=1;strokeColor=none;fillColor=none;align=center;verticalAlign=middle;whiteSpace=wrap;rounded=0;" parent="1" vertex="1">
          <mxGeometry x="890" y="285" width="60" height="30" as="geometry" />
        </mxCell>
        <mxCell id="_aCOL6AofIa1MBWSSgmZ-12" value="时间线" style="text;html=1;strokeColor=none;fillColor=none;align=center;verticalAlign=middle;whiteSpace=wrap;rounded=0;fontSize=18;" parent="1" vertex="1">
          <mxGeometry x="900" y="320" width="100" height="30" as="geometry" />
        </mxCell>
        <mxCell id="_aCOL6AofIa1MBWSSgmZ-13" value="" style="fontColor=#0066CC;verticalAlign=top;verticalLabelPosition=bottom;labelPosition=center;align=center;html=1;outlineConnect=0;fillColor=#CCCCCC;strokeColor=#6881B3;gradientColor=none;gradientDirection=north;strokeWidth=2;shape=mxgraph.networks.pc;fontSize=18;" parent="1" vertex="1">
          <mxGeometry x="375" y="232.5" width="50" height="35" as="geometry" />
        </mxCell>
        <mxCell id="_aCOL6AofIa1MBWSSgmZ-14" value="" style="endArrow=none;html=1;rounded=0;fontSize=18;" parent="1" edge="1">
          <mxGeometry width="50" height="50" relative="1" as="geometry">
            <mxPoint x="200" y="280" as="sourcePoint" />
            <mxPoint x="200" y="240" as="targetPoint" />
          </mxGeometry>
        </mxCell>
        <mxCell id="_aCOL6AofIa1MBWSSgmZ-15" value="" style="endArrow=none;html=1;rounded=0;fontSize=18;" parent="1" edge="1">
          <mxGeometry width="50" height="50" relative="1" as="geometry">
            <mxPoint x="600" y="280" as="sourcePoint" />
            <mxPoint x="600" y="240" as="targetPoint" />
          </mxGeometry>
        </mxCell>
        <mxCell id="_aCOL6AofIa1MBWSSgmZ-16" value="虚拟机运行在&lt;br&gt;源物理机上" style="text;html=1;strokeColor=none;fillColor=none;align=center;verticalAlign=middle;whiteSpace=wrap;rounded=0;fontSize=18;" parent="1" vertex="1">
          <mxGeometry x="297.5" y="190" width="205" height="30" as="geometry" />
        </mxCell>
        <mxCell id="_aCOL6AofIa1MBWSSgmZ-17" value="" style="endArrow=classic;html=1;rounded=0;fontSize=18;dashed=1;" parent="1" edge="1">
          <mxGeometry width="50" height="50" relative="1" as="geometry">
            <mxPoint x="360" y="260" as="sourcePoint" />
            <mxPoint x="200" y="260" as="targetPoint" />
          </mxGeometry>
        </mxCell>
        <mxCell id="_aCOL6AofIa1MBWSSgmZ-18" value="" style="endArrow=classic;html=1;rounded=0;fontSize=18;dashed=1;" parent="1" edge="1">
          <mxGeometry width="50" height="50" relative="1" as="geometry">
            <mxPoint x="440" y="260" as="sourcePoint" />
            <mxPoint x="600" y="260" as="targetPoint" />
          </mxGeometry>
        </mxCell>
        <mxCell id="_aCOL6AofIa1MBWSSgmZ-19" value="" style="endArrow=none;html=1;rounded=0;fontSize=18;" parent="1" edge="1">
          <mxGeometry width="50" height="50" relative="1" as="geometry">
            <mxPoint x="720" y="280" as="sourcePoint" />
            <mxPoint x="720" y="240" as="targetPoint" />
          </mxGeometry>
        </mxCell>
        <mxCell id="_aCOL6AofIa1MBWSSgmZ-20" value="" style="endArrow=none;html=1;rounded=0;fontSize=18;" parent="1" edge="1">
          <mxGeometry width="50" height="50" relative="1" as="geometry">
            <mxPoint x="880" y="280" as="sourcePoint" />
            <mxPoint x="880" y="240" as="targetPoint" />
          </mxGeometry>
        </mxCell>
        <mxCell id="_aCOL6AofIa1MBWSSgmZ-21" value="" style="fontColor=#0066CC;verticalAlign=top;verticalLabelPosition=bottom;labelPosition=center;align=center;html=1;outlineConnect=0;fillColor=#CCCCCC;strokeColor=#6881B3;gradientColor=none;gradientDirection=north;strokeWidth=2;shape=mxgraph.networks.pc;fontSize=18;" parent="1" vertex="1">
          <mxGeometry x="775" y="230" width="50" height="35" as="geometry" />
        </mxCell>
        <mxCell id="_aCOL6AofIa1MBWSSgmZ-22" value="" style="endArrow=classic;html=1;rounded=0;fontSize=18;dashed=1;" parent="1" edge="1">
          <mxGeometry width="50" height="50" relative="1" as="geometry">
            <mxPoint x="760" y="260" as="sourcePoint" />
            <mxPoint x="720" y="260" as="targetPoint" />
          </mxGeometry>
        </mxCell>
        <mxCell id="_aCOL6AofIa1MBWSSgmZ-23" value="" style="endArrow=classic;html=1;rounded=0;fontSize=18;dashed=1;" parent="1" edge="1">
          <mxGeometry width="50" height="50" relative="1" as="geometry">
            <mxPoint x="840" y="260" as="sourcePoint" />
            <mxPoint x="880" y="260" as="targetPoint" />
          </mxGeometry>
        </mxCell>
        <mxCell id="_aCOL6AofIa1MBWSSgmZ-25" value="" style="ellipse;shape=cloud;whiteSpace=wrap;html=1;fontSize=18;fillColor=#F19C99;" parent="1" vertex="1">
          <mxGeometry x="622.5" y="170" width="75" height="50" as="geometry" />
        </mxCell>
        <mxCell id="_aCOL6AofIa1MBWSSgmZ-26" value="" style="curved=1;endArrow=classic;html=1;rounded=0;fontSize=18;dashed=1;" parent="1" edge="1">
          <mxGeometry width="50" height="50" relative="1" as="geometry">
            <mxPoint x="600" y="260" as="sourcePoint" />
            <mxPoint x="630" y="200" as="targetPoint" />
            <Array as="points">
              <mxPoint x="600" y="210" />
            </Array>
          </mxGeometry>
        </mxCell>
        <mxCell id="_aCOL6AofIa1MBWSSgmZ-28" value="" style="curved=1;endArrow=classic;html=1;rounded=0;dashed=1;fontSize=18;" parent="1" edge="1">
          <mxGeometry width="50" height="50" relative="1" as="geometry">
            <mxPoint x="690" y="200" as="sourcePoint" />
            <mxPoint x="720" y="260" as="targetPoint" />
            <Array as="points">
              <mxPoint x="720" y="200" />
            </Array>
          </mxGeometry>
        </mxCell>
        <mxCell id="_aCOL6AofIa1MBWSSgmZ-29" value="迁移&lt;br&gt;执行状态" style="text;html=1;strokeColor=none;fillColor=none;align=center;verticalAlign=middle;whiteSpace=wrap;rounded=0;fontSize=18;" parent="1" vertex="1">
          <mxGeometry x="620" y="230" width="80" height="30" as="geometry" />
        </mxCell>
        <mxCell id="WvZuHLwOSjtssqFwPs-B-2" value="&lt;font style=&quot;font-size: 18px;&quot;&gt;0&lt;/font&gt;" style="text;html=1;strokeColor=none;fillColor=none;align=center;verticalAlign=middle;whiteSpace=wrap;rounded=0;" parent="1" vertex="1">
          <mxGeometry x="90" y="320" width="60" height="30" as="geometry" />
        </mxCell>
        <mxCell id="WvZuHLwOSjtssqFwPs-B-3" value="时间指针" style="text;html=1;strokeColor=none;fillColor=none;align=center;verticalAlign=middle;whiteSpace=wrap;rounded=0;fontSize=18;" parent="1" vertex="1">
          <mxGeometry x="60" y="120" width="120" height="40" as="geometry" />
        </mxCell>
        <mxCell id="Ytj0PdgWRgDravnHIEoL-1" value="" style="endArrow=classic;html=1;rounded=0;fontSize=18;entryX=0;entryY=1;entryDx=0;entryDy=0;" parent="1" target="_aCOL6AofIa1MBWSSgmZ-1" edge="1">
          <mxGeometry width="50" height="50" relative="1" as="geometry">
            <mxPoint x="120" y="160" as="sourcePoint" />
            <mxPoint x="170" y="150" as="targetPoint" />
          </mxGeometry>
        </mxCell>
        <mxCell id="qUBD2IH8IKCdjNRNr7ge-5" value="&lt;font style=&quot;&quot;&gt;&lt;font style=&quot;font-size: 18px;&quot;&gt;备份&lt;br&gt;版本信息&lt;/font&gt;&lt;br&gt;&lt;/font&gt;" style="rounded=0;whiteSpace=wrap;html=1;fillColor=#CCCCCC;" parent="1" vertex="1">
          <mxGeometry x="240" y="80" width="80" height="80" as="geometry" />
        </mxCell>
        <mxCell id="qUBD2IH8IKCdjNRNr7ge-6" value="&lt;font style=&quot;font-size: 18px;&quot;&gt;备份&lt;br&gt;安装配置&lt;/font&gt;" style="rounded=0;whiteSpace=wrap;html=1;fillColor=#CCCCCC;" parent="1" vertex="1">
          <mxGeometry x="340" y="80" width="80" height="80" as="geometry" />
        </mxCell>
        <mxCell id="qUBD2IH8IKCdjNRNr7ge-7" value="&lt;font style=&quot;font-size: 18px;&quot;&gt;备份&lt;br&gt;内存页&lt;/font&gt;" style="rounded=0;whiteSpace=wrap;html=1;fontSize=14;fillColor=#E6FFCC;" parent="1" vertex="1">
          <mxGeometry x="440" y="80" width="120" height="80" as="geometry" />
        </mxCell>
        <mxCell id="qUBD2IH8IKCdjNRNr7ge-8" value="&lt;font style=&quot;font-size: 18px;&quot;&gt;备份&lt;br&gt;剩余脏页&lt;/font&gt;" style="rounded=0;whiteSpace=wrap;html=1;fontSize=14;fillColor=#E6FFCC;" parent="1" vertex="1">
          <mxGeometry x="580" width="120" height="80" as="geometry" />
        </mxCell>
        <mxCell id="qUBD2IH8IKCdjNRNr7ge-10" value="&lt;span style=&quot;font-size: 18px;&quot;&gt;备份&lt;br&gt;执行状态&lt;br&gt;&lt;/span&gt;" style="rounded=0;whiteSpace=wrap;html=1;fontSize=14;fillColor=#9AC7BF;" parent="1" vertex="1">
          <mxGeometry x="580" y="80" width="120" height="80" as="geometry" />
        </mxCell>
        <mxCell id="qUBD2IH8IKCdjNRNr7ge-12" value="" style="endArrow=classic;html=1;rounded=0;fontSize=18;entryX=0;entryY=1;entryDx=0;entryDy=0;" parent="1" edge="1">
          <mxGeometry width="50" height="50" relative="1" as="geometry">
            <mxPoint x="279.5" y="160" as="sourcePoint" />
            <mxPoint x="279.5" y="320" as="targetPoint" />
          </mxGeometry>
        </mxCell>
        <mxCell id="qUBD2IH8IKCdjNRNr7ge-15" value="" style="endArrow=classic;html=1;rounded=0;fontSize=18;entryX=0;entryY=1;entryDx=0;entryDy=0;" parent="1" edge="1">
          <mxGeometry width="50" height="50" relative="1" as="geometry">
            <mxPoint x="379.5" y="160" as="sourcePoint" />
            <mxPoint x="379.5" y="320" as="targetPoint" />
          </mxGeometry>
        </mxCell>
        <mxCell id="qUBD2IH8IKCdjNRNr7ge-18" value="" style="endArrow=classic;html=1;rounded=0;fontSize=18;entryX=0;entryY=1;entryDx=0;entryDy=0;" parent="1" edge="1">
          <mxGeometry width="50" height="50" relative="1" as="geometry">
            <mxPoint x="499.5" y="160" as="sourcePoint" />
            <mxPoint x="499.5" y="320" as="targetPoint" />
          </mxGeometry>
        </mxCell>
        <mxCell id="qUBD2IH8IKCdjNRNr7ge-21" value="" style="endArrow=classic;html=1;rounded=0;fontSize=18;entryX=0;entryY=1;entryDx=0;entryDy=0;" parent="1" edge="1">
          <mxGeometry width="50" height="50" relative="1" as="geometry">
            <mxPoint x="639.5" y="160" as="sourcePoint" />
            <mxPoint x="639.5" y="320" as="targetPoint" />
          </mxGeometry>
        </mxCell>
        <mxCell id="qUBD2IH8IKCdjNRNr7ge-24" value="&lt;font style=&quot;font-size: 24px;&quot;&gt;虚拟机备份镜像&lt;/font&gt;" style="text;html=1;strokeColor=none;fillColor=none;align=center;verticalAlign=middle;whiteSpace=wrap;rounded=0;dashed=1;fontSize=18;" parent="1" vertex="1">
          <mxGeometry x="313.75" y="20" width="172.5" height="30" as="geometry" />
        </mxCell>
        <mxCell id="tVNubo4pV_SkZey-CRlF-1" value="虚拟机运行在&lt;br&gt;目标物理机上" style="text;html=1;strokeColor=none;fillColor=none;align=center;verticalAlign=middle;whiteSpace=wrap;rounded=0;fontSize=18;" vertex="1" parent="1">
          <mxGeometry x="687.5" y="190" width="225" height="30" as="geometry" />
        </mxCell>
      </root>
    </mxGraphModel>
  </diagram>
</mxfile>
